<?xml version="1.0" encoding="UTF-8"?>
<!DOCTYPE svg PUBLIC "-//W3C//DTD SVG 1.1//EN" "http://www.w3.org/Graphics/SVG/1.1/DTD/svg11.dtd">
<!-- Creator: CorelDRAW 2019 (64-Bit) -->
<svg xmlns="http://www.w3.org/2000/svg" xml:space="preserve" width="7.9622mm" height="8.675mm" version="1.1" style="shape-rendering:geometricPrecision; text-rendering:geometricPrecision; image-rendering:optimizeQuality; fill-rule:evenodd; clip-rule:evenodd"
viewBox="0 0 18.83 20.52"
 xmlns:xlink="http://www.w3.org/1999/xlink">
 <defs>
  <style type="text/css">
   <![CDATA[
    .fil0 {fill:black}
   ]]>
  </style>
 </defs>
 <g id="Слой_x0020_1">
  <metadata id="CorelCorpID_0Corel-Layer"/>
  <path class="fil0" d="M9.42 20.52c-0.65,0 -1.3,-0.14 -1.81,-0.44l-5.31 -3.06c-2.16,-1.46 -2.3,-1.68 -2.3,-3.97l0 -5.58c0,-2.29 0.13,-2.51 2.25,-3.95l5.34 -3.09c1.01,-0.59 2.61,-0.59 3.62,0l5.33 3.07c2.16,1.46 2.3,1.68 2.3,3.97l0 5.57c0,2.29 -0.13,2.51 -2.25,3.95l-5.35 3.09c-0.52,0.3 -1.18,0.44 -1.82,0.44zm0 -19.06c-0.41,0 -0.8,0.08 -1.08,0.24l-5.31 3.07c-1.57,1.06 -1.57,1.06 -1.57,2.71l0 5.57c0,1.65 0,1.65 1.61,2.74l5.27 3.04c0.57,0.33 1.6,0.33 2.17,0l5.31 -3.07c1.56,-1.06 1.56,-1.06 1.56,-2.71l0 -5.57c0,-1.65 0,-1.65 -1.61,-2.74l-5.27 -3.04c-0.28,-0.16 -0.68,-0.24 -1.08,-0.24z"/>
  <path class="fil0" d="M9.42 13.88c-2,0 -3.62,-1.62 -3.62,-3.62 0,-2 1.62,-3.62 3.62,-3.62 2,0 3.62,1.62 3.62,3.62 0,2 -1.62,3.62 -3.62,3.62zm0 -5.79c-1.2,0 -2.17,0.97 -2.17,2.17 0,1.2 0.97,2.17 2.17,2.17 1.2,0 2.17,-0.97 2.17,-2.17 0,-1.2 -0.97,-2.17 -2.17,-2.17z"/>
 </g>
</svg>
